<mxfile host="app.diagrams.net" agent="Mozilla/5.0 (X11; Linux x86_64) AppleWebKit/537.36 (KHTML, like Gecko) Chrome/131.0.0.0 Safari/537.36" version="26.0.2">
  <diagram name="PÃ¡gina-1" id="ZVE2HVIwVjAo14ywN72u">
    <mxGraphModel dx="1434" dy="788" grid="1" gridSize="10" guides="1" tooltips="1" connect="1" arrows="1" fold="1" page="1" pageScale="1" pageWidth="827" pageHeight="1169" math="0" shadow="0">
      <root>
        <mxCell id="0" />
        <mxCell id="1" parent="0" />
        <mxCell id="2MUhO0kgMoHGu1yQ0CRt-1" value="" style="shape=image;verticalLabelPosition=bottom;labelBackgroundColor=default;verticalAlign=top;aspect=fixed;imageAspect=0;image=data:image/jpeg,/9j/4AAQSkZJRgABAQAAAQABAAD/2wBDAAgGBgcGBQgHBwcJCQgKDBQNDAsLDBkSEw8UHRofHh0aHBwgJC4nICIsIxwcKDcpLDAxNDQ0Hyc5PTgyPC4zNDL/2wBDAQkJCQwLDBgNDRgyIRwhMjIyMjIyMjIyMjIyMjIyMjIyMjIyMjIyMjIyMjIyMjIyMjIyMjIyMjIyMjIyMjIyMjL/wAARCAIAAgADASIAAhEBAxEB/8QAHwAAAQUBAQEBAQEAAAAAAAAAAAECAwQFBgcICQoL/8QAtRAAAgEDAwIEAwUFBAQAAAF9AQIDAAQRBRIhMUEGE1FhByJxFDKBkaEII0KxwRVS0fAkM2JyggkKFhcYGRolJicoKSo0NTY3ODk6Q0RFRkdISUpTVFVWV1hZWmNkZWZnaGlqc3R1dnd4eXqDhIWGh4iJipKTlJWWl5iZmqKjpKWmp6ipqrKztLW2t7i5usLDxMXGx8jJytLT1NXW19jZ2uHi4+Tl5ufo6erx8vP09fb3+Pn6/8QAHwEAAwEBAQEBAQEBAQAAAAAAAAECAwQFBgcICQoL/8QAtREAAgECBAQDBAcFBAQAAQJ3AAECAxEEBSExBhJBUQdhcRMiMoEIFEKRobHBCSMzUvAVYnLRChYkNOEl8RcYGRomJygpKjU2Nzg5OkNERUZHSElKU1RVVldYWVpjZGVmZ2hpanN0dXZ3eHl6goOEhYaHiImKkpOUlZaXmJmaoqOkpaanqKmqsrO0tba3uLm6wsPExcbHyMnK0tPU1dbX2Nna4uPk5ebn6Onq8vP09fb3+Pn6/9oADAMBAAIRAxEAPwD3+iiigAooooAKKKKACiiigAooooAKKKKACiiigAooooAKKKKACiiigAooooAKKKKACiiigAooooAKKKKACiiigAooooAKKKKACiiigAooooAKKKKACiiigAooooAKKKKACiiigAooooAKKKKACiiigAooooAKKKKACiiigAooooAKKKKACiiigAooooAKKKKACiiigAooooAKKKKACiiigAooooAKKKKACiiigAooooAKKKKACiiigAooooAKKKKACiiigAooooAKKKKACiiigAooooAKKKKACiiigAooooAKKKKACiiigAooooAKKKKACiiigAooooAKKKKACiiigAooooAKKKKACiiigAooooAKKKKACiiigAooooAKKKKACiiigAooooAKKKKACoYLqG5edIZA7QSeVJgfdbaGx78MKmrA8NSFLvXLKUjz4dQeQgD+CQB0Oe/Bx+FIDfooopgFFFFABRRRQAUUUUAFFFFABRRRQAUUUUAFFFFABRRRQAUUUUAFFFFABRRRQAUUUUAFFFFABRRRQAUUUUAFFFFABRRRQAUUUUAFFFFABRRRQAUUUUAFFFFABRRRQAUUUUAFFFFABRRRQAUUUUAFFFFABRRRQAUUUUAFcnqMMOieOrHWSWEWqJ/Z0o3cCXho2I75ClfyrrKyvEemtqmhXMMKBruMedaHIBWdPmjIJ6fMBz6E0mNGrRWdoWqpreiWuoojR+cnzIwwUYEhh+DAitGmIKKKKACiiigAooooAKKKKACiiigAooooAKKKKACiiigAooooAKKKyBcvfeIntRbhrSyTMkjqCPPO1kC57hSTkf3hRcDXooooAKKKKACiiigAooooAKKKKACiiigAooooAKKKKACiiigAooooAKKKKACiiigAooooAKKKKACiiigAooooAKKKKACiiigAooooAKKKKACiiigDnNNvZLXxnqmiyqFhkiW+tAoGApO2Xv3k5/E10dc7rfk6d4i0XVTuEk8p02TAzuSQFl69MOi9PWuipLsNhRRRTEFFFFABRRRQAUUUUAFFFFABRRRQAUUUUAFFFZ+s6tFo2myXcqmRhwkYIBdvTn9fak2krsaV9EYvjjVDbacthERvus+ZzysY6/mePpmtzRZGl0Owdm3M1vGWJOcnaM/rXld9e3mp3bXd44aVxgdlVecADsP8nPWuv8AXzvb3VhJIpWIiSJc8gEndj2Bx+LVzU63NUZvOnywOvnnjtreW4mbbFEhd29ABkmsfwnN9s0IagUCyXk0szgeu8gf+Oqo/CpvE8hTw5exqMvOn2dAASSZDsGAOSfm7VoWlrDY2kVrboEhiUKqjsK6PtGPQmoooqiQooooAKKKKACiiigAooooAKKKKACiiigAooooAKKKKACiiigAooooAKKKKACiiigAooooAKKKKACiiigAooooAKKKKACiiigAooooAKKKKAOV+Itg174NupI9/nWjLdR7OxU8n8FLGuktLqO9soLuLPlzxrImeuGGR/OnzQx3EEkEqho5FKOp7gjBFc94Am8/wJpLk5xEV/wC+WI/pU/aH0OkoooqhBRRVW/1G00y2NxeTrFHnGTkkn0AHJ/CjYC1RXIJ4xudYvlsdBsgZCMme7B2IB1yFz2xjkckCusiEiwoJmVpAo3sq7QT3IBJwPbJ+tTGSlsNxa3H0VmzeIdIgQM2o27AnGI38w/kuTWLeeOYIJcW9m0sY4LvJs/IYPH1xSlUhHdjUJPZHWUV5zL8QdSGTHBZ+wKN/8VWRe+KtYv5fMlvZIY+qxWxMYXgDqDk9M8k8ntWf1iHQ0VGXU9dormvBelJZ6SL9wxub8CVyzZ+Xnbj6g5+prpa2TurmTVnYKKKKYhk0qQQvNKwWONSzMewHJNeWavrE+qXjTSmRoFZvKDADYhOQMDvjHvxXR+LdejkSXSrcLIoI89xk4IOdgx34Gfy9ccjKI5VHHTvXFiKt3yo6aMLe8yESFm+Zf15q7p832HU7e5UFVilVnKnnbnkD1yMjrzmolt1SP5SuOnSmoWTAI5rm21N99DsvFV8bm78MxWrLJDcajHKXXnhGHH6nP0rr68y8LyXN94tsLZ3VodOilljUYG0OMNn15YV6bXo0pc65jjqR5fdCiiitTMKKKKACiiigAooooAKKKKACiiigAooooAKKKKACiiigAooooAKKKKACiiigAooooAKKKKACiiigAooooAKKKKACiiigAooooAKKKKACiiigArlfh8JoPDTafPF5cmn3Uts3OckNuz/49/WuqrktFu2i+IXiLTeBC6xXKKOgbYgY49TkZqXo0UtmdbWRq3iXTNHJjuZi04APkxjc3+A9eSKpeM9Zk0rS447eXy7i5fYG7hQPmIPY8gevPFeYsqIC7uM9MBe1ZVa3K+VbmlOlzK7Om1Px9qdyoWxjjsl4y3Ejn8xjH4fjXM+de6teRRvLNdXLsI0MjljkngAnoOfwqP5dny8k96taPeNpeoLfxiNntlYojn7xYFR+W7P4Vyubk/eZ0KKivdR373Om+BdKjhWJZb6ZQzhWwZCOrE9lBzj/APWa43UNavtZcyXM7MufljHCJycYHt69ayJprrUb2a6uJi80p3MzHOc+3oBgewFTRs8WNxz7ilUquWi0Qo01HV7lhUI+UnYeMH1pJS7AB/lHTI5FNVS7khm5688VJ5L/AHVOB9OtZJWLuQRxxyS+WqP0681e0zQp9W1FbSBwBjc7t/yzTucZ5PPT88cmqwiKcg89TXceB9LkTz9UlwBKPKiwwOQD8xP4gD8DWtGPPKzIqS5Y3OvRFjRURQqKAFVRgAegp1FFekcQVV1OeS20q8nhx5sUDumemQpIq1UN3bi7sp7YttEsbR7sZxkYpPYEeQCdm3yTMzuSWZ85yT1J9TTer7gR+tVpWlt5prWYBZYXMbAnIBBwR70schMm3IJ9j0ryra6no9C2J8BeMkH0qYSqYi7EA45Iqo77X4bOB0qG5nfyGTdkuNq4Ax70mCRs+AVln8Yy3KZVfJbzMcZUBQPzOD+FerVxHw30uW206e+lClbjCxHOWwpbcfYE4/75+ldvXo0I2gjjrO8wooorYyCiiigAooooAKKKKACiiigAooooAKKKKACiiigAooooAKKKKACiiigAooooAKKKKACiiigAooooAKKKKACiiigAooooAKKq3+p2Wlwede3McCdtx5b6DqfwrmL34jaVEriyinunAG0keWjdO55HX+7UynGO7KUW9kdjRXnE/wARNSZt8FhaxR4+7I5c9PUY/lRB8TZ44yLrToZHHUxSlMfgQ386z9vDuV7KR6PRXJ6d8RNCvZBFNJJaSnaP3y/KSf8AaGcAepxXS2t5a30PnWdzDcRZxvhkDrn0yK1Uk9iHFrcnrldfFvoviPTPEDMY0lf7DdbRwysCUY/RgPwx6V1VZ2vaWutaHeaexAM0ZCMf4WHKn8CBRJXQRepxnxKi8q6sLrdkOjR7cdMEH/2b9K5GORXXc+GUdTXe6rHN418Bw3VqFW7jbzvJBPzOm5SnqCecZ74+tedwWV/ezRWlnaT3EhALJGv3c9NxPAHuSBXFWheV11OmnL3bPoPZYwrNgD+tRSwS20pSUKZONyr/AAggHBz3HevQtB8JjQoZNX1iQO9shmWFMMqALkk5HLDtjgY6njHmkl7LqF1NcSqRLdStIQOmSckCs5UmldmkZpuyLcE5d9iKc9sdMVoQgY+c4Y9getV7VRFFhWyxGDjoKb9nZZN65Hf71RsPcuOuE+QgH1pqO6jg8+/SlXKKpJ7c8VcliMVpHcTDy4ZsiPA+aX12+3TLe/RulLXoGxY0qyk1W4MSFI0jG+aZzgRp3P19q6T/AISvSdGtv7P0yGW78gYUhgEc5+Y7vqScgY/CuHlurhrQWqybbYNuEaYGT6t/ePHf8MDiomdlKrjnOGIFaxqci93chw5nqdVL481UzN5VvZomeFdHYj0ydwz+VInxEvoZ2W40+GVQvAjYoc/U7v5VzDIGYbiuPc/yqNii8YcqfXt+NCrVO4nTj2PQtG8f6ZqAKX+zTpt2AJJNyEeu/AA6d8dsZrra8KaxR84GOwJNb3hbxdcaLNHZ3rPLprHbuYlmgPAG3rlenA+o9DvTxF9JGc6PWJt/EHQkMH9twNslQpHOBgBlJwG92yVH0x6VwdpNsu9zqNoUvnPXiva7+ys9c0mS1mIltblAQ0bdRwVZSPwINeM6ppjaHcX9rdTBmgYRiRepUncp+pUjipxFPXmRVGd1ysiRHkuWmL7UZuMnrW34e8PnxFqqklDZ27Bpy3Vhn7oxg84Iz2A+mWaf4YupdJXVr+YWtq6j7NEvzSz5xsVQOm7PHU+oxXpfh3R4tE0eG2RNsrAPNl92XIGefTsKilRbleS0LqVUo2W5poiRRrHGqoigKqqMAAdABTqKK7zjCiiigAooooAKKKKACiiigAooooAKKKKACiiigAooooAKKKKACiiigAooooAKKKKACiiigAooooAKKKKACiiigAoorN1rVZdJtBNFpl5fsxKhLVAxBxxu5yB7gHFGwF24uYbS3ee4lWKJBlnY4ArhdZ8eyORFpSGJT96aVQWzn+EZIH4+vQYrndS8ZX/iDME6LBaM2fIUAjg5G45ySOPQcDis5o0TAQY9BmuKtiHe0DqhRSV5C3LSX08k88xklbG5nJY+2T7fyFV/Ky+G5I59KkEJGHz+APWoGlZSS6k88Z//AF1zGxJwobG8Z4OearygyY2qp9TmpPtETHG7nOBk0x3iCbt3Pc0wKUtuC20HtgkDNNtrnUNHvFubCaa3mGBvjOMjIOD2I4HB4qY3CmdYk2ckAAcGu60T4b3FyyXGsuLeLOfs8Zy568E9F7HjJ57Gtaak3ojObilqWvDnxHnvT9ivtLu7q8ABV9Ph3gr0yw3fLzjnOOe1d6lwTDHJLBNEznHlsu5lPvsyB9c4qPTtMstJtBa2FusEIOdq5OT6knkn3NW67oppas5ZNN6GLHf2Nj4kl0eOIQ3F3H9rVhyruchsjtwgPvz366dpZW1hB5NrAkMeckIMZPTJ9Tx1PNVNa0ldWswquYbuFvMtpx1ikHQ+49R3FR6X4gttS0o3pjlgeOQwzwOhLxyjqmAMk89u1HXUXTQq+NppIvCd8kMgSaZRCpPfcfm/8d3V45CsUZSFJCz47Yya9wTTVvW+06rbwyykbUhb50iXOe/Bb1OO2PrpgADAGAKznTc3e5pGfKrHjdnomr3DKsGmXPzruVmjKqR1+82B0963rHwHqUgU3M0NsrZLDcZHX8Bx/wCPV6NRUrDx6jdaXQwtJ8KafpbCUhrmcYIkmAIUjByo7cjOeSPWuY+Icc/9rWLl/wBy0JWMbujBvmIH0K/kPSvRKxvE2hx65pbRgYuYsvAwxndj7uT2P+B7Vc6a5HGJMZ+9dnlK7y4A6g96jkRzMzMvy9cnpTTDdQ3LxTxSwlHwUkXDA+/51YkLnlzwv3hivOaOu4xt4QqDyD0qxFGjcnK44we9QFED5D7lPY9veppXV32bBxwQ1AFhWjZeapXNunlngbeoHpVzdsRSQQPXoAKo3N1GPl6j1oBHRfD3WbqPVhpLyO9q6uyIRwjDnIPXnnjpzXS3Xh+x1bxbNLOFmihSOSeFxkNJghQfUAKCR9OxrL8A6TNHPJqUsDJE0e2IyLtzuwcqCORgdenPGea6VLRD9tt5Jw7zzNLdMkwBjj/gX1GVUD6bsHpXdSTcFzHNUa5nYf8AZodXv47yWNXgtGP2Y7shnzy+PQEAD8T6Vq1kSeIdCsbdB/aFt5agIqwt5hAHsuTTYPFeh3EmxNRjU/8ATQNGPzYAVqpRXUzs30Nmiq0Go2NzHJJBeW8qR/faOVWC/Ug8VQvfEunWe5RL58q/wRDPbOc9MfTNU5JatiSbNimSyxwxmSWRY0HVnOAPxrjbrxXe3B/0UJbgc4xvY+2Txzkdh0rCuN00zPLKTK2Mszbifz61jKulsWqb6no/9q6cTj7fa59POX/GrQIIBByD0IryzMMRCu68c9cGmtJBuDlGOOmUP9RU/WO6K9kerUV5pBqt9BsNrLcqqcKokUp/3zkitnTvFV+kypf28bwBcF4z+8J7HHA+o4/pVxrRZLptHZUVDbXcF5CJbeQOmcZHGD7jtU1bGYUUUUAFFFFABRRRQAUUUUAFFFFABRRRQAUUUUAFFFFABRRRQAUUUUAFFFFABRRRQAUUUUAcV4g+Hdpqs0l5aXlxb3hyQHkZ42PJ5/iGT7kDsK8w1rRtR8P3qxanBtaQkxyZBRwO6kfTOODgjIHFfQlQXlnbahaSWt3Ck0Egw8bjIPf+fPtWU6SkawquO587G4laJsS455PcUB5AufM3e5Fd74h+F80JM+gO0sR+9aTOAy8/wOcDABHDHPHUk1wEqSW0zxuGWRDtdHGGUjqCK5ZQcdzojKMthhj3MWOBn2609xgbX64wOaas2WwccdqduQkfNj29KkYxFTBA2g+tX9O1XUdHkE1hdSwHcCVjf5WOO46Hv1qp5LFsLhh64wTTXV4zgLtbv2NUtHoLRnrHhz4lWOoKlvrGyxuiSPN6Qt0xyTlTz344684ru6+aGcFcMvtla6Pw1481Dw4nkhftumgfJA7bPLP+y2D/AN8/yrohV/mMJ0+x7pXJ65aDR/EsHiolfsSReReqsYLKDkCX1OMqDjkKO/QamgeJ9L8SW5ksJ8yL/rIJPlkT6juOeoyPfitdlV1KsoZWGCCMgitmk0ZJ2YoIIBByDRXNWJfw1qcWkOJpNKuW/wBDuJGBFu3/ADwJPOOPlJ55284rpaE7g1YKKKKYgooooA5rxP4aGqAXlnGovVHzAtgSADj/AIF0APHueBjzzVbHUdMkP2uwljjUgF2Hyc9AGGQT7Z7V7RRWM6EZO5rCq46HgkjfPGkTEMzDBNXUM9xdSLa2c9w2d2yCIuwHTJx09K6rU/CFtdeK1ttJnEEYCzXUSRjZAMjABHAJGSFPuenA6ZNV0XR3/svToTNMnLW1jFvYchSWI4B6ZLHNYKjr7z0NXU7HB2nhrxFqmN9kbdGJBe4bYF4zyD83tkD/AOt0cHhjw54cZLnV7uO4uFG4LMAF6kZWIZJ6993TPFbGp38sFksup38ekwuMGOH97Mf91sdRkZwrYxnPp5vqWprfTymwsTb2rPkmU73kOfvM5JPpxnH1PNOShSV0tSY80/Q6jXfHhlieDSEcKQQbhhtJ5/h7jI74PXt1rg5pHaUkoqbtqrgb8fmy0M0ob94wxjlUBz+dT8lSY4yF9e2K551JTepvGMY7Do4A/AuI85x8/wC7/Lg5pJtOvxJzJDsXr+95/wDQePzqNt5GXD5PpxTI5ZrNejPEvRGY/IP9n0/z9KUbdQlfoOiM6Ph7i3XAwNgBP4jircDTyL8t+soHDbBtI9uTUgZbmFXhSOVHB/1n3gf8+tPEZCuV+V+xP09RW1kZXY+3ton3F7mZnPUSOuPw4q4kaJnJDL/00O79M4rPkkVEDbnEh9e//AuuanjknOFcvgdAT1P1o5QuaSiNlIULxzhaXykQAIvH+7xVdYwwJOStSrDECMqufTaKAHbM/wB3HuM1KPMZGk+UKp55C/p3qoyQK2HSPPqVAqRY4XHyLGfYAUCJ1kYOHDMHDAqQSNp9R71fTxPqNphARMBgfvlPTp14yfrmskQgE4yoP93P9KYdsQYFyBjq7Mf5002tgaT3OwsvGNlPIsV1G1s7NgEncntk4B/THvXQQzRXESywyJJG3R0YEH8RXl8dhczYmghupkY4+SEsPzArUTS/EduqNp8U0MefM2rIq5b3UsP1HbmtoVZdVczlCPRnf0VmaG2rtZH+2I4km3fJsYFiP9oAbQfoeh7Vp1undGTCiiimAUUUUAFFFFABRRRQAUUUUAFFFFABRRRQAUUUUAFFFFABRRRQAUUUUAFFZ+t2NzqOjXFrZ3b2ly4HlzISCpBB6ggjOMfjXjcvibxbod3JaTajdwXCHDxXAWbHuCwPHuM8VEp8u5cYc2x7pXN+LPCFr4mtlcMIL+IYiuMZyP7jDuvX6HkdwfMoPiP4ptH3yXkN0BnKTwKF6cH5ApP51r2XxevUG2/0q2mc4O6CUxgfgQ386n2kJKzK9nNO6OV1nw3qWh3Cx6lbiMHISQMGR8f3WB/Q4OMcVmFSW5BI7HqK9gtviV4Y1O3lhv1mt0ICtHc2/mLJnqBt3ZH1A61BH4L8Ja6Gl0nUJFBQMY7e4D7cjjcrAsPoSPwrJ0/5WaKo18SPJkfEhBAyO/rVk3IQBT0H8J5FegSfCHe5K67tH/Xpk4+u+so/CbXAxC3mn7R9396+T/45S9lLsHtI9zjHntnYlkZf901C6hcGORGBPKkDOPcHiulf4e+KxIUOleYB0dbiLafzbP6VXi8BeK5UWVNEZlbs8kUZ/EFgRTUH2DmXcpeHdfu/DGvxahBAXQr5c0DD5njOCQOODkA/gM5r6Esr611G1W5sriK4gbo8bBh/+uvFE+HXixrEzNYQKwfaLX7Qpbpnd1K47dc+2Ks6N4Y8caJqK3lho7W8oPzAXURSQDPyuu/5hz/hg81pFyjpYzkk9Uz2G/sLXU7GWyvYVmt5Rh0bvzkfQ5AOaytIvZ7G7Oh6pKWuFybKdySbmEdMsesi/wAQ+h7mr9pqTSRoL20lsZyoLJLhlBJAAEi5U5JwBkE+gp2q6amq2DW7SvC4IeKaP78TjkMP5fQkd61fdGa7Mu0Vk6PqU80kunaghTULZRvY4Czr0Eiexxz6HitahO4NWCiis7VdcsNGRftUpM0nEVvEpeWU9gqjk5PHpnHNNu24krmjXNav4wt7K6ax021l1XUUP7y3tgT5ag4JZgD0JAx69cVSfT/EXipx/aTnSNIYc2kL5nmGBw7dgcnI/AjvXTaZpVjo1ktpp9usECnO1ckk+pJ5J9z6VN29i7Jb6nJWnhjxNe28i6prnkJM3mvHCoLMWHKuVC5wML1YYAA6Ct628Nx2VkbO11G8t4Cc7YREhz65CA54Hetuqcur6bA7pLf2qOn3kMq7h+Gc1PJFasOaTOU1fwfeiVrmzuHvWONy3DDzDwB97gHueccDHNchIxRpFaPy5UO0hoxkHODnPTBr1GHxNos5YLqVuu3qZG2D82xUepaTpniSzMiyRu+3bHcwsG2/kcEe3ucY61hOhGWsGaRqNaSPKkldidjqfbbimE3EfKuoHtg10d/4A1a2ObR4rxNwxg7H6ckhjjGf9o1Tbwb4jwMWRx3UTR//ABVc3s6i0aN+eHcyBdTfdfn3PNQ+dtJG7HsK1rjw3rtqF87TJ2z0KAS/+gk/0pqeHtWuJlT+y7kM3TdEVH4k8D86XLLsNOPcxCs+7zVkXd1+6Ov+161btbsGdUlbyex+fIP410lp4F1mdSJlgt1zjbLICSPbYD/OtiD4cQrMGn1OV0HIEUexgfZiTWkKdXsRKcO5zB8t1Pmpk9Qdo4HrSxjEYLlgSeu4iu4s/AegWiEG2kmYtkvJKQT/AN84H6VoP4b0l2JNqVJ/uSuv8jXQqUupi5x6Hnv+pwWY+uQx/wAaVp4JQhCJnoMpkmvQo/DekRyBxYxsR2kJcfkSRV63tbe0QpbW8UKk5IjQKCfXin7Fvdi9okcLa+H9Vu1ylqtuhGQ07bOQfQZI/Ef/AF9m08Hok4lu7syDgmONSoz7nJyPoBXT0VcaMUS6kmZkfh/S45fNForN6OzMPyJIq9BbwWsfl28McSZztjUKM/QVLRWiSWxN2wooopiCiiigAooooAKKKKACiiigAooooAKKKKACiiigAooooAKKKKACiiigAooooAKKKKACuQ8ceDU8RWjXtqrf2rDFsiHmbVkUHO1u3dsHjkjJxXX0Umk1ZjTad0fMEqyQSyQSrJE6sVdJFwVIOCCOxzShdxGDtPoT1+lelfE3woInfxFZpGsfAuowAPmJwH98kgEewPc15r+7ddoADg8jPWuWUbOx0xlzK4jq68HgenrSb2idJUdo3jYMjjIIYcggjoakUuoKNyi9Vao/kLA+ZsburH5Sakq52/hr4najpKLbaqkmoW+QFkL/AL5B35P3vxP4+nq+i69p3iCxF3p1wsi/xoTh4z6MvUHj8eo4r5xlTYPmUgN3HQ1Z0nWL7QdRj1HTpNssXDcZDr1KuO6nH6DHOK1hUa3MpU09j6XorlfC3jzSvEyJCGFrqDA5tXJOcf3WwA3HOOvXiuqrdO5i1YKKKKYgqnJZypsNlcm329IigeIjAGNvBAAHAUqM8nNXKKAOb1xWuEhnkJ0zULQlra7kO6DccBlLDopyF+YKTxgHpTLHxzo8tiJL25FvcxgLcReWx2v0OMA5GQcYJ4xW5qd7Bp2mXF3cDMUaZK4zuzwB+JIH415x4d8Iv4gjkuLqSW0sc4RYFA8w852k5AA4HQ56dqym2pWjuzSKTXvHXLqesa6obSLcWNmSM3d4nzsDzujToRjueDntitLS9Cs9KkkmjMs91LxJdXD75XHYE+nAGBjoKzLLw/rGkIU0/X3mt0B8q2vofMA4wAXBDAdOnA9Ka+q6taBotbgmtkBLLe6ZF50e0Lk7gwZl/wC+e3XFNaayE9djpJZoreJpZpEjjUZZ3YAD6k1xOtePSoePRofNAHNy6HA4OcLxyOOvvxVqbRrPxNF51p4ilumUhjvKSKgI6bFC7T/ga53U/Cut2sKv9lW6wuX+z4YDnAADfMfXpxWdWdT7K0LhGPUxL3XNSvN/2m7eUM24o0h2g+u3OBjPYVntdBjzMisvGMdqr3CTxyyCRHjdWwwlgGM+nBzn1qu008eA0cTMOhRelcbV92dK02NAzAuokfcxHGCRipkxG0bxyATIQyPG21hzwQe1UJZoJlVBAVnzhgOgFSR/ZpB+7kZXBx81K1g3OjtfE2tWALRahPLhslJz5gbHbLcgdehFdt4b8ZQa1Itncxi2vyMqoJKy4GSVPY9TtPbueceSE3KZMRDRjIIXnNNE5Xy3DPFKCGDBiCpHcHsfpW0KsovyM5U4tH0LRXEeGvHJuoTBrEJheKMYuQCVmPP8IHB6dMg89OBWhN40tlK+RaSv13eYwT8uua7PaRte5zckr2Onorij4yvXbMdvb7D0DBsjnvzSJ4v1J2x5Vp6/dbp/31U+2iP2bO2orjV8Wairr5lvbMufmADA49jk/wAq0YvF1mUQzwTRE/fIAZU56+pH4U1VixODOhoqvaX1rfxeZazLIuM8cEfUHkfjVitE7khRRRQAUUUUAFFFFABRRRQAUUUUAFFFFABRRRQAUUUUAFFFFABRRRQAUUUUAFFFFABRRRQAUUUUAFFFFABRRRQA2SNJY2jkRXRwVZWGQwPUEVwuu/C/TL1Xl0lv7PnOT5eN0RPJwB1TkjpwAOFrvKKTSe402tjwDXPCGveGlEt3FHcWjDJmg3OkZ9GJAK/XpzgZPFY+yF1OQVPtX0vXO3HgTwzc3BnfSYkc9fJd4l/75UgfpWUqX8pqqvc8FyyDCSZH91hkH6ikZVJyqMkg/ii+Yfl2r2KX4UaIxkaO7v0ZugLRsAf++Mn86pRfCCyMq/adVneEc7YohGc89ySP0qfZyK9pE8laEFdw2M45Dp0/4EvUfXHYV6x4F+Iq3m3StemSO5A/dXTuAsv+yx6Z9D0P162/+FR6FkE3+qkjoTLGcfmlc3rXwu1W3nkfTwl/alxsTzQkwH+0GwpxwCc5PoOapKUdSW4y0PY6K5Hwtq2oafYpp3ijzYLxZBHBPOMrKpGVUyglS/UdQTx1Oa66tU7mTVgrk/F3ji08OI9rAVn1IqCseMqmSPv4Ixxzgc9OgOai8c+NB4chWxs13anPHvQlcrEmSN59TwcD259D4zG02o3zySMW3MXllfqxJz+JNZ1KnLojSnTvqzam1i/1BjeajcyzuMsisxITPZV6DPHA9q9r8PKi+HNN2IEDW0bED1Kgk/Ukk14HLcJJdrChIjj+9jGCcf5/OtXTfFuu2JENpqkyw/KFSQCQKo6AbwccelY058rbZpOF0kj3mivnwaxqEWpjUIr24N9niZ5CScHIU88r/s9K9v8ADmqvrfh+01CSNUklU71Q5G4MVOPbIreFRTMZ03HUffaFpmoTLPcWcZuFYMs6ZSQEdDvXDfrVNdK1jT0I0/WDcoqYWHUk8z5ickmRcN+ef8N2ircUSpM5nUNWgTEfiDQnSNWIE+1Z4UU8bt5wV+mM9Kwbjwn4Zv4Wl07Vfsas4O2U/KBjsGw3XBzk16JWDrXhWy1QCeALZX6P5iXUK4bd/tYwW/PPvWU6bfmXGdvI8rudIe1untm8mZ/78Lh1I9j/AI4qpLpU5AG0KPQsCfrVuTX/ABPpV+8Ut/eR3cLFXhuZi/6H5T14OCCMEE1C3iO7cBLq1iMjngiIIVH/AAAqpz7oen5cdkmdOrQlvpbRsN8j4xn+6D+GP61Zj8mOYI4VW6Zb+L8eTVaLWoy489HzzjBGG+gPP6VowzQT/u0EfmEZIccrx6VSsyXcijuUZiiy/Mh5GP8A9VWzcrEhcpKVx0VM/wBOKUrGqZCIFAycgc/TimkR7lGwjeflO1f8abZJLFOjOSiTf7xJx/OmTOikOsMOe+QuTQojVjsiB9lib/CmtMcjYWCnj7rf4VLuUh0crIS58lIzjLZG0H069TUqOs9qA80anuFYHihcMDukY59jSu7RKzxu7Owwg7D36U0mK46K6aNhLbXQSRTgOHwR24xXYaD4lknljtL9gzyHCT5UAk9AR+gI68cVxtjBeyq8UcMkxUAMI0JxnuQM4/8A1102leB4Zh5+sxKSeBbpgcf7TDnOewP4nOBrT5r6ET5ep2tFc9bLpHhC3ksbZ5pZJ5WnjskxJKd3ZFHO35TyffJq2LvXZBvj0i0jQ9FuL4rIB/tBI2UH6MfrXUmY2NaiqMMuqtIBPZWSJkZMd2znHfgxj+dSTXU0V1HCmn3MqMRmZGjCJ9cuG49gaYi1RRRQAUUUUAFFFFABRRRQAUUUUAFFFFABRRRQAUUUUAFFFFABRRRQAUUUUAFFFFABRRRQAUUUUAFFFFABRRRQAUUUUAFFFFAEc9vDdQPBcQxzQuMNHIoZWHuD1rD1S71Hw7pt3cxRtf2scZePfJmSI4OAePmTpyTuHOc9R0FZniRBJ4W1eM4w1lMOfdDSY0fO9zdy3bNczzSXNxOcs8hLMT06nv29gBVtT/Z+nbVX983zcnuf8/pVa0t2udszycp8pY9T7n37Urs/2jcrsREeCONv45rhep2rQcq+VCS335OSacreSAxUkv8Ad4pCQymQI7ADozqvH5H/ADj1pXJkG91IUf8ATQcD/vmlcLC7/kJMbbz90HjP+Ne+eF9Ll0bw1Y2ExzNGhMnszEsR+BOPwry3wx4W1bWVj1Sz22628itDLc5HmMpyCvB3AEDkjGfXBxHrWqa+NSnttT1K7guUAEkEU+FOVBGVQ7eQQenfnvWtN8i5mjOa53ZM9lu7600+ETXt1BbRE7Q80gQE9cZPfg/lWXd+MfDtmgaXVrZgenkt5v8A6BmvDW2RrIhmwsnLIWABIzg1DtaNPkV2GcYDbqp130RCorqz164+Kfh2K5MMK3tzgA7ooQB09HKn9Kktfid4dnLCZrq0C95oCQT6fJurxR7hWfo+euCmKaJUduSNx5zij2s+xXso9z1jxBqHg3xYN8Osw22pIm2KecPChAydjFwBjk89R78g+e+YouPKNxG2w8mKUMuB3BXg/UViuI/Lznr/AHqYFxn5jj3bj8qzn7+ttS4x5dLm4AkjuBuznqQeefzpqxCMlOdjN84Vtv0zVOHUGiT50U4HG3jcf8+9aOkw3Gu3v2OxAe6xuEZlEbEd8biAx69M1lysq5q6Dc2kt3JbahqN5F54VIZxt2RN0+dT/D05yPf1HQ3PgzxJZOnki2v41chSjBG256sGwMkdh0Pr1rmbrwrrtvOY5tIvGcfxQxFx09VyK6LRPHl7oKLp2rWkk0URVF42SRKBgrgjnHGAcY5yemNYpbTM5N7xGS2uoWTMt3YXluV+ZpDDujU+pdSVA9elXdP0ebV/NS1u7BmUHcEuVfjv9wtiu10fxJpeullsLgvIiB3jZCpUH1yMH8Cau3WnWN8VN5Z29xsOV86JXwfbIrZUY7pmTqM5O18BPHOJJ9TDIcboo4Mfkxb8M49OK37Pw3plmoHkeewBG6c78gnPTp7Zx0q3Dptvb3Jnja4DEY2m5kZAPZC20fgKibS2lG241G+mj/ub1i/WNVb8M4rRQS2RDk31I5NUsrOU6fZRefdIuRaWqj5f948Kn/AiM9snApE0/ULsbtSv2jBJzbWTGNMdsyf6wkeoKg+nXN61s7Wxh8m0tobeLOdkKBFz9BU9VbuK5Ba2dvZRslvCkYZt7kDl27sx6sxxyTyanoopiCiiigAooooAKKKKACiiigAooooAKKKKACiiigAooooAKKKKACiiigAooooAKKKKACiiigAooooAKKKKACiiigAooooAKKKKACiiigArK8TypF4W1VnYKDaSKCfUqQB+ZFateb/EvxAyFNEh2FWVZJiG5zk4Ujt0z+K/jM5csblQjzSsecmTy4dikAgfID6U7T9OuL6eGztomkmmbCpxlvbPt1NWYrV5GCpDJcTuSIoYhvZsDJwB7AmvVvAXh2TR9Ka6vYFW/uWLHI+aOPjCH8Rk/XnpxyU4ubOmpJROB8W6Enh2x0rSoHkkvbrL3SxBm81sgIiDHIB3YGMk4PXFanhX4czXKpfeIFMFsFV47QHDNzn95xwMAcdeecY59H1L+zLRotV1BYw9qGWKZlLFN+AdoHOT045xn1Nec+I/Fl3riNBbmS00/DK4V/mmBOPmOOmOw45Od1bSjCLuzJSk1ZGlrXxLsdMeKw0O0S4RD5Ym+7CoBAwgH3hjIzwOARkVw+sy3OvXYl1G582ZhtR8fd9gBgAc1SWwEl60zEbE+4B6+tSzwuJFYzqqBsu8hC1nKbZailsRSaRDDbgG8aI4OBLjB/CqL2Uy42PBKOmYn5/KtV2NwSkUlvPGT0+zMR/31ux61VXQpJd7Bo1DY2Dpt/D5v51JRmTGaBhERIg9ChWoly/LBf8AgQxWtLot8kZSKUyoeNgcrn8+Kota3sL/ALy1lY9Sdhb/AMeoGIIUzjbgYzUbISRtxjHPUUquSSVz+FTZ52chvXHFK47FXYQGO5l9CuB/+uo8yK6h14Pcjn6/5zVx/u8/TOMUW1pc30/lWcM08vOFgjLtx16fQ09wOp8M/EvVdIkjtr9jf2C4Uq3+tjX1Vu/0bPQDKivWdC8V6P4iXGn3YaYKGeCRSjr68HrjoSMj3rxSy8F+KL0M0Oj3QA6+cFiPP++Rn3xn3roNL+FmuTOkl3PBYjdkkPvkXHIIC8HnH8Q6VtGU10MZRg+p7LRXN6H4YvdKdZbnxJqd7IG5V3zGy+hV9xH1BFdJWy8zFhRRRTEFFFFABRRRQAUUUUAFFFFABRRRQAUUUUAFFFFABRRRQAUUUUAFFFFABRRRQAUUUUAFFFFABRRRQAUUUUAFFFFABRRRQAUUUUAFFFFABRRRQAUUUUAZmva3b6BpUl9cAtj5UQdXbsM9uh59q8W0WL+2vEMl7qCS3UKEy3AT70jHIRBj+85AwP0rqfinrqveW+iRkN5YE0uDk7jkKMdiBz77hVDwDpOuTXcV9ZLBFawStulnOVLbdpwqkFsKxx0Gc89q5qjcp2OiC5Ycx6J4a8L23h+33nbNfOu2SfHIHHyL3C8D6nn6Rav4z03TcRwOt5cHkLE42Dnnc/IB4PHJrQi0ZWCtqF1PfyADPmkLHkf9M1wv5gn3q/DBFbxCKCJIo16IihQO/QVtZpWjoY3V7vU8g1PUrvW5/Ou5wzKCIwOFQE/wgdPxznA54rNdYwvPzMOnOcH25r2+5s7a8QJdW0M6A5CyoGAPrzWRdeDPD15KZJtMj3H/AJ5u0Y/JSBWToy3uaKoux440KxK3LJ5nJw+0foaq2lq8Qy6wyEkkPj5sZ9dtesXfwz0K6fKveQKDkRpICo/76BJ/OqbfDXChYtWCgdmts8f99ip9lIr2kTgpJjHA8qqu4ZI5z/hTLdV1CNFuoo93QFDgr7g13p+Gk5RlGtoMjGRZnj/yJUlj8MooNy3WrSyRkcCCERkHPcsWz+VJUphzxOOMjxwBmZBhuQf69q1bDwvrWphjBB9ljHBe4UxBiMdBjceD1xjjrXoln4b0ewk8yCwj3hgytITIVI6FSxO38K1a0jQ/mZDq9jB07wfo1jAqy2cN5OBhp7mMOx+mfujtgegzk81a/wCEZ0H/AKAmm/8AgJH/AIVqUVtyozuytZ6fZaerLZWdvbK33hDEqA/XAqzRRTEFFFFABRRRQAUUUUAFFFFABRRRQAUUUUAFFFFABRRRQAUUUUAFFFFABRRRQAUUUUAFFFFABRRRQAUUUUAFFFFABRRRQAUUUUAFFFFABRRRQAUUUUAFFFFABRRRQAU2SRIo2kkYIigszMcAAdSadXH/ABJ1Z9M8LGOKQI93KIDg4baQScfkAfr70pOyuOKu7Hlmk6ZfeLPFA2SstzMxknnxwq5yxI9MngeuBX0DFFHDEkUSKkaKFVFGAoHQAdhXnPwm0tEsLzVpBmeSTyE4PyoAGP5kj/vmvSKimrK5dR62CiiitDMKKKKACiiigAooooAKKKKACiiigAooooAKKKKACiiigAooooAKKKKACiiigAooooAKKKKACiiigAooooAKKKKACiiigAooooAKKKKACiiigAooooAKKKKACiiigAooooAKKKKACiiigAooooAKKKKACiiigArxP4l6u9/4mezRw0NkBGgU8byMsfrk4/Cva2ZURndgqqMkk4AFeHeDNMXxL4xDXbF0j3XcwckmTBHHIP8AEwz6jNY1dbR7m1LS8ux7LpGmQaNpFrp1v/q4EC5/vHqT+JJP41doorYxCiiigAooooAKKKKACiiigAooooAKKKKACiiigAooooAKKKKACiiigAooooAKKKKACiiigAooooAKKKKACiiigAooooAKKKKACiiigAooooAKKKKACiiigAooooAKKKKACiiigAooooAKKKKACiiigAooooAKKKKAOZ8e6mdL8JXTK22S4xbocZ+91/8AHQ1c98KtFaC3vdXlX/XkQwEgg7F+8foWwP8AgNHxX1ZI7ax0pceZI5nf1CgFR+eT+VdB8PQV8C6bnv5p/OVzWW9T0NdqfqdPRRVa61CysSPtd5b2+RkebKqZ/M1qZFmisO88YaDZcNqMUrFdyrB+83e2Rxn6muF1/wCJmpylotHtktI+nnzAPJ9QPuj053VDnFdSlFs9Nv8AUbPS7Vrm+uYreFf45Gxk4zgep46DmuB1b4r26ho9FsnncMR51x8idRghQdxB567SPzrzK+vNQ1S7NzqF5LcTHPLvnaCckLz8oyegwKhUSbWA2HHTMozWcqjexpGmup1j+PfE+4Y1XGecCCL/AOJrLl8S62SSdY1HP+zdOP5GskNIpHzx/KOcOM1C3mM/3lzn+JgRWd5PqaWXY6vTfiL4i05lV7pLyIDaI7lNx65zuGGJ69SQM/SvRPD/AMQ9J1pobe5/0C+lcokMjblc5OMPgDn0ODngZrw0h9+AQWx039veo3WRvlAGT2Df/Xq4zkiZQiz6lorj/AfjC38QaZDYzyN/a9tD+/RgTvCkL5m7GDnIJHUEn612Fbp3MGrBRRRTEFFFFABRRRQAUUUUAFFFFABRRRQAUUUUAFFFFABRRRQAUUUUAFFFFABRRRQAUUUUAFFFFABRRRQAUUUUAFFFFABRRRQAUUUUAFFFFABRRRQAUUUUAFFFFABRRRQAUUUUAeVfFo7tR01JJMxrGzKv9zk7j07/AC9/4a7bRtD1Kw0WzsZ9YdTbxqim1gjUYA6HeG3Y9QFzjpXCfFhJI9csbgqRGbVlVuxIYkjPrgj869arOPxs0l8KKTaVZvJK0qSTiX78c8zyR9c8IxKj8BU1rZWljGY7S1ht0JyVhjCAn6Cp6K0sZiMqupVgCpGCCOCK53U/Augamp/0P7JJgBZLQ+WV5ySFHy5PQkgnH0GOjopNXGnY8c8QfDjVdKLXemyNqFsCf3QTMqg5/h538YyRgnP3cVxrI6TOk0f71CUZGUqVYHkEdcg8Yr6Vqhf6JpeqEm+0+2ncoU8x4wXA9m6jqehrOVO+xcaltz5zG0M2VK47io2VGxlmw38VeyX3wr0mcSNZ3d1bOzZUMRIiD0AOD+bVlv8ACHcc/wBuDPbNpkAf9/Kz9nJGnPE8pO4EDOQevy1Pp2lXuqXotNPtpLqdwTsQA7R0yT0UZIGTgc16ja/B63SdftWsyS24BykVuI29sMWYDn2rt9A8N6b4asjbafDgtzJK+DJIecbiAOmTgdBmrVN9SXUXQg8JeHY/DWg29mywNd7c3M8SYMrZJ5PU4zgE9uw6Vu0UVsYhRRRQAUUUUAFFFFABRRRQAUUUUAFFFFABRRRQAUUUUAFFFFABRRRQAUUUUAFFFFABRRRQAUUUUAFFFFABRRRQAUUUUAFFFFABRRRQAUUUUAFFFFABRRRQAUUUUAFFFFABRRRQB5r8XU322nD/AGZ8fXCV6V1rhvijDG+hWcrL+8W62K3oGRiR/wCOj8q6jw/cpd+HdNuEYMr20ZyPXaM/rWcfjZpL4EaNFFFaGYUUUUAFFFFABRRRQAUUUUAFFFFABRRRQAUUUUAFFFFABRRRQAUUUUAFFFFABRRRQAUUUUAFFFFABRRRQAUUUUAFFFFABRRRQAUUUUAFFFFABRRRQAUUUiFiilwA2OQDkA/WgBaKKKACiiigAooooAKKKKACiiobu6isrOe7nJWGCNpHIGcKoyf0FAFLXtesvDmlvf3zHy1IVUQjfISeigkZPf6AmvMLn4v6s9yxtNOtIoCcIs6s7fiQwH6fnXK69r8/inVXv793jiVmS2Rcfu48kgY7nnk/0wBkyKS/y8oD8qqefxHf8KwlUd9DeNNW1PVfDHxSm1HUobHVbFFa4kWKGS1BADMwADBmPHPUH8PT02vlxZ3inWWFnhkVg6lWwUYcggjkEGvTbD4veVDawXWlNJsVEmnW5ySAMM4Uryepxn8acKn8wpw/lPVqKhtLqC+tIbq2lWWCZA8br0YHpU1bGJx/xJgeXwssqrlYLlHcnsCGXP5sKtfD8Y8Eaep/hMq/gJGx+laniCxGp+Hr+z2lmkhbYB13AZX9QK5T4W3wl0m/sCDutpw+fVXGR+qt+lZbVL90arWn6M72iiitTIKKKKACiiigAooooAKKKKACiiigAooooAKKKKACiiigAooooAKKKKACiiigAooooAKKKKACiiigAooooAKKKKACiiigAooooAKKKKACiiigAooooAKKKKACiiigAooooAKKKKACiiigAqjrNidU0O/sFYK1zbyQhj0BZSAT+dXqKAPmLULC/wBIvXsr+3ktZl6I68MM9VP8QznkdapqC0vzElfY4r6kuLaC7geC5hjmhf70cihlb6g8Vm/8Ip4c/wCgBpX/AIBx/wCFYul2ZsqvdHzp8xBAbKejjtUaqvnKYyobjKA9R7V78/w68KPcvOdIUOzbiFmkVc+yhsAewGK018MeH0cOmhaYrjkMLSMH+VT7F9x+1XY5/wCGGoxXXhRbEZEtjIyMCeSrEup+nJH/AAE12tY194ZsLmeO7tkFjfxMWjubZQrZP94fxA4GQe2R3NXIbi6hPl30QOOlxAvyHkAZXJZTz7gAZ3dq2jdKzMnZu6LteU/D63fTvHV/ZzOm9LeSFsN99kkXp+GTW/4k+Ia6NdQwafpg1ISxiVJUulWNlJIypAbOCCO1eZSeJ9Vl1FteTyrPUt7bhDGCq8FDgNkdOT+NZVZJNPsaU4tprufQlFc54c8ZaZr2jwXjXEFrM7GN4JJApDjqBnGRyCD7+uRXR1snfYxasFFFFMAooooAKKKKACiiigAooooAKKKKACiiigAooooAKKKKACiiigAooooAKKKKACiiigAooooAKKKKACiiigAooooAKKKKACiiigAooooAKKKKACiiigAooooAKKKKACiiigAooooAKKKKACiiigAooooAKKKKAMXxB4X07xHDGt2rRyxsCs8IUSAc/LuIPHJ4ryHxd4F1DwxZzXv2yG6tpJAiYBV920k5XoB8p/iOfx494rD8X6Sda8LX1oi7pvL8yHC5O9eQB7nGPxrOcFJGkJuLPNPCfgO18Q6GmoWWpi0lErpNH9m3FHB553DOVwe/WvWdH01NH0m30+OWSVIF2h5Dyec/kM4A7ACuC+EF8rWWqacMZjmW4znlt42n8BsH516XRTirXQVG72YUUUVoZhRRRQAUUUUAFFFFABRRRQAUUUUAFFFFABRRRQAUUUUAFFFFABRRRQAUUUUAFFFFABRRRQAUUUUAFFFFABRRRQAUUUUAFFFFABRRRQAUUUUAFFFFABRRRQAUUUUAFFFFABRRRQAUUUUAFFFFABRRUF1eWtjD515cw28Wcb5pAi59MmgCeiuD1r4paXZgxaTG+oT4+8AUjX8SMnscAYI7iubGt+PvFK4sVkht5l4e1jEUeAcEiVue3OG9fpUOa6Fqm93oerX+pWWl2/n393DbRdA0rhQTjOBnqeOgrz7X/i/p1tBJHokUlzOCu24miKwgHqcEhie2MD156Ftl8J3u5zd+IdYmuJ3HzrBydwPBMjDLDH+yDk9eOe50nw5o2hKBpmnW9uwUp5irmQqTnBc5YjPqew9KPefkHurzPPvhV4f1iy1W71O+s5bO2Nv9nWO4QpIzblbOCOgAPPHXjPOPVaKKqMVFWQpS5ncKKKKZIUUUUAFFFFABRRRQAUUUUAFFFFABRRRQAUUUUAFFFFABRRRQAUUUUAFFFFABRRRQAUUUUAFFFFABRRRQAUUUUAFFFFABRRRQAUUUUAFFFFABRRRQAUUUUAFFFFABRRRQAUUUUAFFZGreKNG0Tct7fRrMoz5CfPJ0yPlHIz6nArlP+E71nXPMg8N6DKx3FRcynKrgZ56KDj1b061LkkUotnSeJfEf/CPrZBYIZXupvLzPcrBHGvdmYg9OOMf4HO1L4k+H7HcsEk19ICRi2jJXI/2jgEe4zWGvw71fX5lu/E2qfOwGY4/ncKeSoPCpgnsGHWur0bwVoWhhGt7MSzrgie4PmOCM4Izwp5/hAqbzfkVaC8zkn8TeM/FEeNE0o2Vo4BE38TKeDh3wvXrt+YYqS0+GN1eXH2nX9XaaXkN5TNI7DHH7x+n02np19PSaKfJffUXPbbQxNM8I6FpOxrfTomlUhhNMPMcMP4gT90/7uBW3RRVJJbEtt7hRRRTEFFFFABRRRQAUUUUAFFFFABRRRQAUUUUAFFFFABRRRQAUUUUAFFFFABRRRQAUUUUAFFFFABRRRQAUUUUAFFFFABRRRQAUUUUAFFFFABRRRQAUUUUAFFFFABRRRQAUUVDdXdtY2z3N3cRW8CY3SyuEVcnHJPA5NAE1FcXqnxR8NaeXjguJL6Zdw226ErkdPmPBB9Rn+WcH+3fH/inJ0zTTptg4BWThWdH6EM/XjnKYxkH0qXJIpQZ6dPcQ2sLTXE0cMS/eeRgqj6k1hX3jnw5YAhtUhnfbuCW370n2yuQD9SK5CD4Tz3l19s1rVvMmLDzNgaVnA7736H8D+NdZpvgTw7pirtsFuXClS91+8zznO0/KD7gA/rSvJ7IdordmI3j/AFLVZWh8PaDNPhwvmzAsBn+8F4X6lx+FIPDnjTXVB1bXBYQsD+4gGTzxtYIVBBGf4m+ld+qhVCqAABgAdqWjlvuw5rbI5bTPh74e00hmtWvHBJDXZDgAjptACn8QT79K6miiqSS2Jbb3CiiimIKKKKACiiigAooooAKKKKACiiigAooooAKKKKACiiigAooooAKKKKACiiigAooooAKKKKACiiigAooooAKKKKACiiigAooooAKKKKACiiigAooooAKKKKACiiigAooooAKKKKACuN8SfEvQfD0htkkbULzB/c2mHCkZ4ZugPHTkjuK0PEngyw8UTRSX1zeIsabBFC6hD8wOcFTzxjI7VPpfhDw/o8wmsdLgSYHcsr5kdTjHDMSR1PQ1OpSt1PP18YeP/FakaBo4sbV/mS5ZMkr0OHkwjc+gDDHSrtt8KLjUSk/inxDeX0yrgJG5YIc9mfPBHbaOTXp1FHL3Dm7GPpfhTQdFIaw0u3ikViyyMN7qSMHDNkgewOK2KKKokKKKKACiiigAooooAKKKKACiiigAooooAKKKKACiiigAooooAKKKKACiiigAooooAKKKKACiiigAooooAKKKKACiiigAooooAKKKKACiiigAooooAKKKKACiiigAooooAKKKKACiiigAooooAKKKKACiiigAooooAKKKKACiiigAooooAKKKKACiiigAooooAKKKKACiiigAooooAKKKKACiiigAooooAKKKKACiiigAooooAKKKKACiiigAooooAKKKKACiiigAooooAKKKKACiiigAooooAKKKKACiiigAooooAKKKKACiiigAooooAKKKKACiiigAooooAKKKKACiiigAooooAKKKKACiiigAooooAKKKKACiiigAooooAKKKKACiiigAooooAKKKKACiiigAooooAKKKKACiiigAooooAKKKKACiiigAooooAKKKKACiiigAooooAKKKKACiiigAooooAKKKKACiiigAooooAKKKKACiiigAooooAKKKKACiiigAooooAKKKKACiiigAooooAKKKKACiiigAooooAKKKKACiiigAooooAKKKKACiiigAooooAKKKKACiiigAooooAKKKKACiiigAooooAKKKKACiiigAooooAKKKKACiiigAooooAKKKKACiiigAooooAKKKKACiiigAooooAKKKKACiiigAooooAKKKKACiiigAooooAKKKKACiiigAooooAKKKKACiiigAooooAKKKKACiiigAooooAKKKKACiiigAooooAKKKKACiiigAooooAKKKKACiiigAooooAKKKKAP/2Q==;" vertex="1" parent="1">
          <mxGeometry x="50" y="40" width="512" height="512" as="geometry" />
        </mxCell>
      </root>
    </mxGraphModel>
  </diagram>
</mxfile>
